<svg width="256" height="42" viewBox="0 0 256 42" fill="none" xmlns="http://www.w3.org/2000/svg">
<path d="M0.216309 31.9328L7.95449 10.0674H9.86358L2.1254 31.9328H0.216309Z" fill="white"/>
<path d="M19.3328 12.9636V29H16.991V12.9636H19.3328Z" fill="white"/>
<ellipse cx="32.1363" cy="21.0001" rx="5.09091" ry="5.09091" fill="#F87D0B"/>
<path d="M50.3363 18.7164H46.8236V25.6655C46.8236 26.2594 46.9678 26.6582 47.2563 26.8618C47.5618 27.0655 47.9521 27.1673 48.4272 27.1673C48.7666 27.1673 49.1399 27.1333 49.5472 27.0655C49.9545 26.9806 50.3108 26.8873 50.6163 26.7855L50.9727 28.4909C50.6333 28.6267 50.2005 28.7455 49.6745 28.8473C49.1484 28.9491 48.5969 29 48.0199 29C46.8321 29 45.9666 28.7455 45.4236 28.2364C44.8805 27.7103 44.609 26.9552 44.609 25.9709V18.7164H42.8272V17.0364H44.609V13.2182H46.8236V17.0364H50.3363V18.7164ZM63.5029 23.2727H54.9247V23.3745C54.9247 24.6982 55.281 25.7164 55.9938 26.4291C56.7235 27.1418 57.7077 27.4982 58.9465 27.4982C59.5913 27.4982 60.1598 27.4473 60.652 27.3455C61.161 27.2436 61.7126 27.0739 62.3065 26.8364L62.7647 28.4909C62.2726 28.7115 61.6871 28.8897 61.0083 29.0255C60.3465 29.1612 59.6338 29.2291 58.8701 29.2291C58.0047 29.2291 57.1901 29.1103 56.4265 28.8727C55.6798 28.6352 55.018 28.2703 54.441 27.7782C53.8641 27.2691 53.4059 26.6242 53.0665 25.8436C52.7441 25.063 52.5829 24.1297 52.5829 23.0436C52.5829 22.1103 52.7186 21.2618 52.9901 20.4982C53.2786 19.7345 53.6774 19.0897 54.1865 18.5636C54.6956 18.0206 55.3065 17.6048 56.0192 17.3164C56.7489 17.0109 57.5635 16.8582 58.4629 16.8582C59.2265 16.8582 59.9138 16.9855 60.5247 17.24C61.1526 17.4945 61.6871 17.8509 62.1283 18.3091C62.5695 18.7673 62.9089 19.3188 63.1465 19.9636C63.3841 20.6085 63.5029 21.3212 63.5029 22.1018V23.2727ZM61.1865 21.6691C61.1865 21.2279 61.1271 20.8206 61.0083 20.4473C60.9065 20.057 60.7368 19.7176 60.4992 19.4291C60.2786 19.1406 59.9901 18.9115 59.6338 18.7418C59.2774 18.5721 58.8447 18.4873 58.3356 18.4873C57.4023 18.4873 56.6386 18.7842 56.0447 19.3782C55.4677 19.9721 55.1113 20.7527 54.9756 21.72L61.1865 21.6691ZM71.8241 27.4982C72.3671 27.4982 72.8423 27.4388 73.2496 27.32C73.6568 27.2012 74.0556 27.0485 74.4459 26.8618L74.9296 28.5418C74.0132 29 72.9187 29.2291 71.6459 29.2291C70.7805 29.2291 69.9659 29.1018 69.2023 28.8473C68.4556 28.5927 67.7938 28.2109 67.2168 27.7018C66.6568 27.1758 66.2156 26.5309 65.8932 25.7673C65.5708 24.9867 65.4096 24.0788 65.4096 23.0436C65.4096 22.0933 65.5623 21.2364 65.8677 20.4727C66.1732 19.7091 66.5974 19.0642 67.1405 18.5382C67.6835 17.9952 68.3368 17.5794 69.1005 17.2909C69.8641 17.0024 70.7041 16.8582 71.6205 16.8582C72.1465 16.8582 72.6556 16.9006 73.1478 16.9855C73.6568 17.0533 74.2338 17.2315 74.8787 17.52L74.3696 19.2255C73.589 18.7842 72.749 18.5636 71.8496 18.5636C70.6108 18.5636 69.6096 18.9539 68.8459 19.7345C68.0823 20.4982 67.7005 21.5758 67.7005 22.9673C67.7005 23.8327 67.8193 24.5539 68.0568 25.1309C68.2944 25.7079 68.6084 26.1745 68.9987 26.5309C69.389 26.8703 69.8302 27.1164 70.3223 27.2691C70.8144 27.4218 71.315 27.4982 71.8241 27.4982ZM79.6739 29H77.4339V10.9273H79.6739V18.5636C80.2339 18.0715 80.8533 17.6642 81.532 17.3418C82.2108 17.0194 82.9575 16.8582 83.772 16.8582C84.4339 16.8582 85.0108 16.96 85.5029 17.1636C85.9951 17.3503 86.3939 17.6218 86.6993 17.9782C87.0217 18.3176 87.2593 18.7248 87.412 19.2C87.5817 19.6752 87.6666 20.1927 87.6666 20.7527V29H85.4266V21.3127C85.4266 20.3964 85.2399 19.7345 84.8666 19.3273C84.4933 18.903 83.9248 18.6909 83.1611 18.6909C82.5842 18.6909 81.9987 18.8351 81.4048 19.1236C80.8278 19.4121 80.2508 19.8194 79.6739 20.3455V29Z" fill="white"/>
<ellipse cx="100.5" cy="21.0001" rx="5.09091" ry="5.09091" fill="#F87D0B"/>
<path d="M114.653 29H112.413V17.0364H114.169L114.5 18.6909C115.094 18.097 115.713 17.6473 116.358 17.3418C117.02 17.0194 117.775 16.8582 118.624 16.8582C119.846 16.8582 120.804 17.2061 121.5 17.9018C122.196 18.5806 122.544 19.5309 122.544 20.7527V29H120.304V21.0836C120.304 20.3539 120.109 19.777 119.718 19.3527C119.345 18.9115 118.768 18.6909 117.987 18.6909C116.799 18.6909 115.688 19.2255 114.653 20.2945V29ZM136.192 23.2727H127.614V23.3745C127.614 24.6982 127.97 25.7164 128.683 26.4291C129.413 27.1418 130.397 27.4982 131.636 27.4982C132.28 27.4982 132.849 27.4473 133.341 27.3455C133.85 27.2436 134.402 27.0739 134.996 26.8364L135.454 28.4909C134.962 28.7115 134.376 28.8897 133.697 29.0255C133.036 29.1612 132.323 29.2291 131.559 29.2291C130.694 29.2291 129.879 29.1103 129.116 28.8727C128.369 28.6352 127.707 28.2703 127.13 27.7782C126.553 27.2691 126.095 26.6242 125.756 25.8436C125.433 25.063 125.272 24.1297 125.272 23.0436C125.272 22.1103 125.408 21.2618 125.679 20.4982C125.968 19.7345 126.366 19.0897 126.876 18.5636C127.385 18.0206 127.996 17.6048 128.708 17.3164C129.438 17.0109 130.253 16.8582 131.152 16.8582C131.916 16.8582 132.603 16.9855 133.214 17.24C133.842 17.4945 134.376 17.8509 134.817 18.3091C135.259 18.7673 135.598 19.3188 135.836 19.9636C136.073 20.6085 136.192 21.3212 136.192 22.1018V23.2727ZM133.876 21.6691C133.876 21.2279 133.816 20.8206 133.697 20.4473C133.596 20.057 133.426 19.7176 133.188 19.4291C132.968 19.1406 132.679 18.9115 132.323 18.7418C131.966 18.5721 131.534 18.4873 131.025 18.4873C130.091 18.4873 129.328 18.7842 128.734 19.3782C128.157 19.9721 127.8 20.7527 127.665 21.72L133.876 21.6691ZM145.124 18.7164H141.611V25.6655C141.611 26.2594 141.756 26.6582 142.044 26.8618C142.35 27.0655 142.74 27.1673 143.215 27.1673C143.554 27.1673 143.928 27.1333 144.335 27.0655C144.742 26.9806 145.099 26.8873 145.404 26.7855L145.76 28.4909C145.421 28.6267 144.988 28.7455 144.462 28.8473C143.936 28.9491 143.385 29 142.808 29C141.62 29 140.754 28.7455 140.211 28.2364C139.668 27.7103 139.397 26.9552 139.397 25.9709V18.7164H137.615V17.0364H139.397V13.2182H141.611V17.0364H145.124V18.7164Z" fill="white"/>
<ellipse cx="156.864" cy="21.0001" rx="5.09091" ry="5.09091" fill="#F87D0B"/>
<path d="M175.064 18.7164H171.551V25.6655C171.551 26.2594 171.695 26.6582 171.984 26.8618C172.289 27.0655 172.679 27.1673 173.155 27.1673C173.494 27.1673 173.867 27.1333 174.275 27.0655C174.682 26.9806 175.038 26.8873 175.344 26.7855L175.7 28.4909C175.361 28.6267 174.928 28.7455 174.402 28.8473C173.876 28.9491 173.324 29 172.747 29C171.559 29 170.694 28.7455 170.151 28.2364C169.608 27.7103 169.336 26.9552 169.336 25.9709V18.7164H167.555V17.0364H169.336V13.2182H171.551V17.0364H175.064V18.7164ZM177.997 29V17.0364H179.677L180.059 19.4291C180.348 18.6655 180.823 18.0461 181.485 17.5709C182.147 17.0958 182.91 16.8582 183.776 16.8582C184.217 16.8582 184.582 16.8921 184.87 16.96C185.159 17.0279 185.422 17.1127 185.659 17.2145L185.227 19.1745C185.023 19.0727 184.794 18.9879 184.539 18.92C184.302 18.8521 184.013 18.8182 183.674 18.8182C183.182 18.8182 182.723 18.903 182.299 19.0727C181.892 19.2424 181.527 19.497 181.205 19.8364C180.899 20.1758 180.653 20.6 180.467 21.1091C180.297 21.6012 180.212 22.1697 180.212 22.8145V29H177.997ZM197.844 22.8909C197.844 23.8921 197.691 24.7915 197.386 25.5891C197.08 26.3697 196.656 27.0315 196.113 27.5745C195.587 28.1176 194.967 28.5333 194.255 28.8218C193.542 29.0933 192.77 29.2291 191.938 29.2291C191.107 29.2291 190.335 29.1018 189.622 28.8473C188.926 28.5758 188.315 28.1855 187.789 27.6764C187.28 27.1503 186.873 26.5139 186.567 25.7673C186.279 25.0036 186.135 24.1297 186.135 23.1455C186.135 22.1442 186.287 21.2533 186.593 20.4727C186.898 19.6921 187.314 19.0388 187.84 18.5127C188.383 17.9697 189.011 17.5624 189.724 17.2909C190.437 17.0024 191.209 16.8582 192.04 16.8582C192.872 16.8582 193.635 16.9855 194.331 17.24C195.044 17.4945 195.655 17.8764 196.164 18.3855C196.69 18.8945 197.097 19.5309 197.386 20.2945C197.691 21.0412 197.844 21.9067 197.844 22.8909ZM195.502 23.0182C195.502 22.2206 195.4 21.5418 195.197 20.9818C194.993 20.4218 194.721 19.9636 194.382 19.6073C194.06 19.2509 193.686 18.9964 193.262 18.8436C192.838 18.6739 192.405 18.5891 191.964 18.5891C191.523 18.5891 191.09 18.657 190.666 18.7927C190.241 18.9285 189.868 19.1661 189.546 19.5055C189.223 19.8448 188.96 20.303 188.757 20.88C188.57 21.44 188.477 22.1527 188.477 23.0182C188.477 23.8158 188.578 24.503 188.782 25.08C188.986 25.64 189.249 26.0982 189.571 26.4545C189.91 26.8109 190.292 27.0739 190.717 27.2436C191.141 27.4133 191.574 27.4982 192.015 27.4982C192.456 27.4982 192.889 27.4303 193.313 27.2945C193.737 27.1418 194.11 26.8958 194.433 26.5564C194.755 26.2 195.01 25.7418 195.197 25.1818C195.4 24.6048 195.502 23.8836 195.502 23.0182ZM202.81 29H200.57V17.0364H202.326L202.657 18.6909C203.251 18.097 203.87 17.6473 204.515 17.3418C205.177 17.0194 205.932 16.8582 206.781 16.8582C208.002 16.8582 208.961 17.2061 209.657 17.9018C210.353 18.5806 210.701 19.5309 210.701 20.7527V29H208.461V21.0836C208.461 20.3539 208.265 19.777 207.875 19.3527C207.502 18.9115 206.925 18.6909 206.144 18.6909C204.956 18.6909 203.845 19.2255 202.81 20.2945V29ZM214.523 29V17.0364H216.763V29H214.523ZM215.643 13.9564C215.253 13.9564 214.914 13.8291 214.625 13.5745C214.354 13.303 214.218 12.9721 214.218 12.5818C214.218 12.1915 214.354 11.8606 214.625 11.5891C214.914 11.3176 215.253 11.1818 215.643 11.1818C216.017 11.1818 216.348 11.3176 216.636 11.5891C216.925 11.8606 217.069 12.1915 217.069 12.5818C217.069 12.9721 216.925 13.303 216.636 13.5745C216.348 13.8291 216.017 13.9564 215.643 13.9564ZM226.108 27.4982C226.651 27.4982 227.126 27.4388 227.533 27.32C227.94 27.2012 228.339 27.0485 228.729 26.8618L229.213 28.5418C228.297 29 227.202 29.2291 225.929 29.2291C225.064 29.2291 224.249 29.1018 223.486 28.8473C222.739 28.5927 222.077 28.2109 221.5 27.7018C220.94 27.1758 220.499 26.5309 220.177 25.7673C219.854 24.9867 219.693 24.0788 219.693 23.0436C219.693 22.0933 219.846 21.2364 220.151 20.4727C220.457 19.7091 220.881 19.0642 221.424 18.5382C221.967 17.9952 222.62 17.5794 223.384 17.2909C224.148 17.0024 224.988 16.8582 225.904 16.8582C226.43 16.8582 226.939 16.9006 227.431 16.9855C227.94 17.0533 228.517 17.2315 229.162 17.52L228.653 19.2255C227.872 18.7842 227.032 18.5636 226.133 18.5636C224.894 18.5636 223.893 18.9539 223.129 19.7345C222.366 20.4982 221.984 21.5758 221.984 22.9673C221.984 23.8327 222.103 24.5539 222.34 25.1309C222.578 25.7079 222.892 26.1745 223.282 26.5309C223.672 26.8703 224.114 27.1164 224.606 27.2691C225.098 27.4218 225.598 27.4982 226.108 27.4982ZM238.412 19.2764C237.852 19.0048 237.343 18.8182 236.885 18.7164C236.426 18.6145 235.968 18.5636 235.51 18.5636C234.695 18.5636 234.093 18.7164 233.703 19.0218C233.312 19.3103 233.117 19.7006 233.117 20.1927C233.117 20.5491 233.253 20.863 233.525 21.1345C233.796 21.3891 234.365 21.6436 235.23 21.8982L235.994 22.1273C237.131 22.4667 237.988 22.9079 238.565 23.4509C239.158 23.977 239.455 24.6982 239.455 25.6145C239.455 26.7006 239.048 27.5745 238.234 28.2364C237.436 28.8982 236.316 29.2291 234.874 29.2291C234.11 29.2291 233.372 29.1612 232.659 29.0255C231.963 28.8897 231.361 28.703 230.852 28.4655L231.386 26.7091C231.878 26.9467 232.413 27.1418 232.99 27.2945C233.567 27.4303 234.152 27.4982 234.746 27.4982C235.51 27.4982 236.112 27.3624 236.554 27.0909C237.012 26.8194 237.241 26.3697 237.241 25.7418C237.241 25.1988 237.046 24.817 236.655 24.5964C236.265 24.3588 235.705 24.1297 234.975 23.9091L234.186 23.6545C233.083 23.2982 232.26 22.857 231.717 22.3309C231.191 21.7879 230.928 21.0921 230.928 20.2436C230.928 19.7345 231.038 19.2679 231.259 18.8436C231.48 18.4194 231.777 18.063 232.15 17.7745C232.54 17.4861 232.998 17.2655 233.525 17.1127C234.051 16.943 234.628 16.8582 235.255 16.8582C235.849 16.8582 236.46 16.9176 237.088 17.0364C237.733 17.1382 238.344 17.3164 238.921 17.5709L238.412 19.2764Z" fill="white"/>
<path d="M246.136 31.9328L253.874 10.0674H255.784L248.045 31.9328H246.136Z" fill="white"/>
</svg>
