<svg width="113" height="40" viewBox="0 0 113 40" fill="none" xmlns="http://www.w3.org/2000/svg">
<path d="M57.4384 5H37.0581C37.0581 8.32078 34.7351 11.0843 31.6289 11.7884V35C34.7276 34.6687 37.6342 33.2944 39.7727 30.9865L59.4866 9.67997C61.1357 7.89533 59.8706 5.00377 57.4422 5.00377L57.4384 5Z" fill="white"/>
<path d="M23.1084 5H2.7921C0.352338 5 -0.908967 7.91417 0.758955 9.69127L20.8117 31.0542C22.8599 33.238 25.6008 34.5708 28.5338 34.9661V11.7922C25.4276 11.0881 23.1046 8.32079 23.1046 5.00377L23.1084 5Z" fill="white"/>
<path d="M64.1519 11.88H66.3599V25.128H72.8159V27H64.1519V11.88ZM85.1532 21.24C85.1532 22.184 85.0092 23.032 84.7212 23.784C84.4332 24.52 84.0332 25.144 83.5212 25.656C83.0252 26.168 82.4412 26.56 81.7692 26.832C81.0972 27.088 80.3692 27.216 79.5852 27.216C78.8012 27.216 78.0732 27.096 77.4012 26.856C76.7452 26.6 76.1692 26.232 75.6732 25.752C75.1932 25.256 74.8092 24.656 74.5212 23.952C74.2492 23.232 74.1132 22.408 74.1132 21.48C74.1132 20.536 74.2572 19.696 74.5452 18.96C74.8332 18.224 75.2252 17.608 75.7212 17.112C76.2332 16.6 76.8252 16.216 77.4972 15.96C78.1692 15.688 78.8972 15.552 79.6812 15.552C80.4652 15.552 81.1852 15.672 81.8412 15.912C82.5132 16.152 83.0892 16.512 83.5692 16.992C84.0652 17.472 84.4492 18.072 84.7212 18.792C85.0092 19.496 85.1532 20.312 85.1532 21.24ZM82.9452 21.36C82.9452 20.608 82.8492 19.968 82.6572 19.44C82.4652 18.912 82.2092 18.48 81.8892 18.144C81.5852 17.808 81.2332 17.568 80.8332 17.424C80.4332 17.264 80.0252 17.184 79.6092 17.184C79.1932 17.184 78.7852 17.248 78.3852 17.376C77.9852 17.504 77.6332 17.728 77.3292 18.048C77.0252 18.368 76.7772 18.8 76.5852 19.344C76.4092 19.872 76.3212 20.544 76.3212 21.36C76.3212 22.112 76.4172 22.76 76.6092 23.304C76.8012 23.832 77.0492 24.264 77.3532 24.6C77.6732 24.936 78.0332 25.184 78.4332 25.344C78.8332 25.504 79.2412 25.584 79.6572 25.584C80.0732 25.584 80.4812 25.52 80.8812 25.392C81.2812 25.248 81.6332 25.016 81.9372 24.696C82.2412 24.36 82.4812 23.928 82.6572 23.4C82.8492 22.856 82.9452 22.176 82.9452 21.36ZM87.5553 19.464C87.5553 18.84 87.6673 18.288 87.8913 17.808C88.1153 17.312 88.4273 16.896 88.8273 16.56C89.2433 16.224 89.7313 15.976 90.2913 15.816C90.8513 15.64 91.4593 15.552 92.1153 15.552C92.3553 15.552 92.5873 15.568 92.8113 15.6C93.0353 15.632 93.2593 15.672 93.4833 15.72H98.3553V17.28H97.6113L95.6913 17.016C95.9953 17.336 96.2273 17.704 96.3873 18.12C96.5633 18.536 96.6513 18.976 96.6513 19.44C96.6513 20.064 96.5393 20.624 96.3153 21.12C96.0913 21.6 95.7793 22.008 95.3793 22.344C94.9793 22.68 94.4993 22.936 93.9393 23.112C93.3793 23.272 92.7713 23.352 92.1153 23.352C91.6193 23.352 91.1873 23.32 90.8193 23.256C90.4513 23.384 90.1953 23.552 90.0513 23.76C89.9073 23.952 89.8353 24.16 89.8353 24.384C89.8353 24.752 89.9553 25 90.1953 25.128C90.4513 25.256 90.7873 25.32 91.2033 25.32H94.1793C95.4273 25.32 96.3793 25.608 97.0353 26.184C97.7073 26.744 98.0433 27.512 98.0433 28.488C98.0433 29.112 97.9073 29.672 97.6353 30.168C97.3633 30.664 96.9713 31.088 96.4593 31.44C95.9633 31.792 95.3553 32.056 94.6353 32.232C93.9153 32.424 93.1073 32.52 92.2113 32.52C90.5793 32.52 89.2753 32.224 88.2993 31.632C87.3393 31.056 86.8593 30.2 86.8593 29.064C86.8593 28.472 87.0433 27.976 87.4113 27.576C87.7953 27.176 88.2913 26.872 88.8993 26.664C88.5793 26.44 88.3393 26.208 88.1793 25.968C88.0193 25.712 87.9393 25.376 87.9393 24.96C87.9393 24.464 88.0833 24.04 88.3713 23.688C88.6753 23.336 89.0833 23.056 89.5953 22.848C88.9553 22.56 88.4513 22.144 88.0833 21.6C87.7313 21.04 87.5553 20.328 87.5553 19.464ZM90.1233 27C89.3073 27.368 88.8993 27.944 88.8993 28.728C88.8993 30.136 90.0353 30.84 92.3073 30.84C92.9793 30.84 93.5473 30.776 94.0113 30.648C94.4753 30.52 94.8513 30.352 95.1393 30.144C95.4273 29.936 95.6353 29.704 95.7633 29.448C95.9073 29.192 95.9793 28.928 95.9793 28.656C95.9793 27.984 95.7473 27.536 95.2833 27.312C94.8353 27.104 94.2673 27 93.5793 27H90.1233ZM94.5153 19.512C94.5153 18.664 94.2913 18.04 93.8433 17.64C93.4113 17.24 92.8353 17.04 92.1153 17.04C91.3953 17.04 90.8113 17.24 90.3633 17.64C89.9313 18.04 89.7153 18.632 89.7153 19.416C89.7153 20.248 89.9313 20.864 90.3633 21.264C90.8113 21.648 91.3953 21.84 92.1153 21.84C92.8353 21.84 93.4113 21.648 93.8433 21.264C94.2913 20.88 94.5153 20.296 94.5153 19.512ZM110.63 21.24C110.63 22.184 110.486 23.032 110.198 23.784C109.91 24.52 109.51 25.144 108.998 25.656C108.502 26.168 107.918 26.56 107.246 26.832C106.574 27.088 105.846 27.216 105.062 27.216C104.278 27.216 103.55 27.096 102.878 26.856C102.222 26.6 101.646 26.232 101.15 25.752C100.67 25.256 100.286 24.656 99.9978 23.952C99.7258 23.232 99.5898 22.408 99.5898 21.48C99.5898 20.536 99.7338 19.696 100.022 18.96C100.31 18.224 100.702 17.608 101.198 17.112C101.71 16.6 102.302 16.216 102.974 15.96C103.646 15.688 104.374 15.552 105.158 15.552C105.942 15.552 106.662 15.672 107.318 15.912C107.99 16.152 108.566 16.512 109.046 16.992C109.542 17.472 109.926 18.072 110.198 18.792C110.486 19.496 110.63 20.312 110.63 21.24ZM108.422 21.36C108.422 20.608 108.326 19.968 108.134 19.44C107.942 18.912 107.686 18.48 107.366 18.144C107.062 17.808 106.71 17.568 106.31 17.424C105.91 17.264 105.502 17.184 105.086 17.184C104.67 17.184 104.262 17.248 103.862 17.376C103.462 17.504 103.11 17.728 102.806 18.048C102.502 18.368 102.254 18.8 102.062 19.344C101.886 19.872 101.798 20.544 101.798 21.36C101.798 22.112 101.894 22.76 102.086 23.304C102.278 23.832 102.526 24.264 102.83 24.6C103.15 24.936 103.51 25.184 103.91 25.344C104.31 25.504 104.718 25.584 105.134 25.584C105.55 25.584 105.958 25.52 106.358 25.392C106.758 25.248 107.11 25.016 107.414 24.696C107.718 24.36 107.958 23.928 108.134 23.4C108.326 22.856 108.422 22.176 108.422 21.36Z" fill="white"/>
</svg>
